<svg width="68" height="60" viewBox="0 0 68 60" fill="none" xmlns="http://www.w3.org/2000/svg">
<path fill-rule="evenodd" clip-rule="evenodd" d="M63.75 45C63.75 45.3806 63.6671 45.7406 63.5481 46.0838L44.625 28.125L63.75 15V45ZM7.5565 48.6488L26.7325 30.6187L34 35.4656L40.953 30.5887L60.4435 48.6488C60.1396 48.7107 7.86037 48.7107 7.5565 48.6488ZM4.25 45V15L23.375 28.125L4.45188 46.0838C4.33288 45.7406 4.25 45.3806 4.25 45ZM61.625 11.25L34 30L6.375 11.25H61.625ZM59.5 7.5H8.5C3.80587 7.5 0 10.8581 0 15V45C0 49.1419 3.80587 52.5 8.5 52.5H59.5C64.1941 52.5 68 49.1419 68 45V15C68 10.8581 64.1941 7.5 59.5 7.5Z" fill="#DE9E0B"/>
</svg>
