<svg width="75" height="70" viewBox="0 0 75 70" fill="none" xmlns="http://www.w3.org/2000/svg">
<path d="M37.5 8.02087C34.8301 8.02193 32.1868 8.51537 29.7219 9.47283C27.257 10.4303 25.0191 11.8329 23.1367 13.6001C19.3242 17.1793 17.1853 22.0219 17.1875 27.0689C17.1875 33.1195 18.8656 37.5211 25.3168 44.8963C28.3137 48.0761 30.9396 51.5446 33.15 55.2432C35.4891 59.69 35.2133 62.7084 37.5 62.7084C39.7867 62.7084 39.5109 59.69 41.85 55.2432C44.0604 51.5446 46.6863 48.0761 49.6832 44.8963C56.1344 37.5211 57.8125 33.1192 57.8125 27.0689C57.8147 22.0219 55.6757 17.1794 51.8633 13.6001C49.9809 11.8329 47.743 10.4303 45.2781 9.47283C42.8132 8.51537 40.1699 8.02193 37.5 8.02087Z" stroke="#DE9E0B" stroke-width="6.0625"/>
<path d="M37.5 34.2708C41.8147 34.2708 45.3125 31.0062 45.3125 26.9792C45.3125 22.9521 41.8147 19.6875 37.5 19.6875C33.1853 19.6875 29.6875 22.9521 29.6875 26.9792C29.6875 31.0062 33.1853 34.2708 37.5 34.2708Z" stroke="#DE9E0B" stroke-width="6.0625"/>
</svg>
