<svg width="84" height="74" viewBox="0 0 84 74" fill="none" xmlns="http://www.w3.org/2000/svg">
<path d="M52.5 15.4167V27.75M52.5 27.75H66.5M52.5 27.75L73.5 9.25M64.75 64.75C34.7886 64.75 10.5 43.3529 10.5 16.9583C10.5 15.7675 10.5495 14.5868 10.6466 13.4178C10.7581 12.0762 10.8139 11.4055 11.213 10.7948C11.5435 10.2891 12.1292 9.8095 12.7259 9.55602C13.4463 9.25 14.2866 9.25 15.967 9.25H25.8276C27.2408 9.25 27.9474 9.25 28.5531 9.45489C29.0881 9.63588 29.5645 9.92984 29.9405 10.311C30.366 10.7424 30.6075 11.3274 31.0905 12.4974L35.1718 22.3852C35.7336 23.7464 36.0147 24.427 35.9671 25.0727C35.9251 25.6421 35.7042 26.1901 35.3297 26.6556C34.905 27.1835 34.2001 27.5561 32.7902 28.3014L28 30.8333C32.2067 39.0008 39.7254 45.633 49 49.3333L51.8742 45.1135C52.7202 43.8712 53.143 43.2502 53.7422 42.8762C54.2707 42.5463 54.8926 42.3517 55.5391 42.3147C56.272 42.2728 57.0447 42.5204 58.59 43.0153L69.8138 46.6107C71.1417 47.0362 71.806 47.249 72.2956 47.6239C72.7282 47.9551 73.0622 48.3747 73.2673 48.8462C73.5 49.3796 73.5 50.0021 73.5 51.2472V59.9338C73.5 61.4141 73.5 62.1544 73.1524 62.789C72.8647 63.3147 72.3205 63.8309 71.7465 64.1219C71.0532 64.4734 70.2919 64.5224 68.7691 64.6208C67.4419 64.7065 66.1017 64.75 64.75 64.75Z" stroke="#DE9E0B" stroke-width="8" stroke-linecap="round" stroke-linejoin="round"/>
</svg>
